Coordinates
version=1
nRows=9
nColumns=36
inDegrees=yes

Units are S.I. units (second, meters, Newtons, ...)
If the header above contains a line with 'inDegrees', this indicates whether rotational values are in degrees (yes) or radians (no).

endheader
time	pelvis_tilt	pelvis_list	pelvis_rotation	pelvis_tx	pelvis_ty	pelvis_tz	hip_flexion_r	hip_adduction_r	hip_rotation_r	knee_angle_r	knee_angle_r_beta	ankle_angle_r	subtalar_angle_r	mtp_angle_r	hip_flexion_l	hip_adduction_l	hip_rotation_l	knee_angle_l	knee_angle_l_beta	ankle_angle_l	subtalar_angle_l	mtp_angle_l	lumbar_extension	lumbar_bending	lumbar_rotation	arm_flex_r	arm_add_r	arm_rot_r	elbow_flex_r	pro_sup_r	arm_flex_l	arm_add_l	arm_rot_l	elbow_flex_l	pro_sup_l
      3.15000000	    -12.79215429	     -1.78583449	     13.83552252	      1.27399198	      0.94219654	     -0.00932976	     23.29833343	     -1.83047888	     -1.21060066	     22.46764663	      0.39213441	      6.13336370	    -13.36379668	     -7.49999987	      5.99817199	     -6.43118197	     -7.84582703	     11.84286023	      0.20669690	     -0.87060142	     -5.11586177	     -7.49999987	     -6.78807506	      2.65216851	     -4.37664719	   -172.03164907	   -157.91296238	   -164.11946731	     39.78335568	     85.36117619	    357.87744562	    -15.87329140	    342.35537395	     54.47358877	     85.03779265
      3.16666670	    -13.11622814	     -2.23012649	     13.63964220	      1.27432533	      0.93058633	     -0.00928873	     25.07960170	     -1.29912208	     -0.77767454	     25.95850131	      0.45306132	      9.56725525	    -13.84832576	     -7.49999987	      6.81092048	     -7.06174527	     -7.86340929	     14.23754568	      0.24849205	      3.80655596	     -5.44896363	     -7.49999987	     -5.89711057	      3.27101589	     -5.20595580	   -167.86370439	   -157.71079078	   -158.63268651	     40.44489512	     87.36829493	    358.61660462	    -15.57334074	    342.04243983	     58.71986344	     86.85971195
      3.18333330	    -13.41433887	     -2.57860931	     13.51979472	      1.28142680	      0.93581707	     -0.00368104	     26.13610611	     -0.63675557	     -0.50404394	     28.18099688	      0.49185118	     11.79430503	    -14.19643287	     -7.49999987	      7.23945833	     -7.62229776	     -7.80725080	     15.59017270	      0.27209984	      7.21390594	     -5.28641696	     -7.49999987	     -5.04428119	      3.52920332	     -6.05634543	   -163.58571530	   -159.18061073	   -153.59689602	     38.84270695	     87.37504888	    359.64142963	    -14.78331948	    341.81778251	     61.88978027	     87.80421233
      3.20000000	    -13.87714754	     -2.92199100	     13.55091987	      1.27669663	      0.93849356	     -0.00086191	     27.23500578	     -0.12795942	     -0.43842435	     29.50699022	      0.51499413	     13.58705037	    -14.04510899	     -7.49999987	      8.01448659	     -8.05784950	     -7.59484982	     16.56440538	      0.28910341	      9.30039598	     -5.12204471	     -7.49999987	     -4.29871454	      3.60909335	     -5.53610642	   -161.43785002	   -160.31068417	   -152.58688919	     40.28895780	     87.82231761	    361.66423185	    -13.95727308	    342.94972590	     63.79106046	     88.19563420
      3.21666670	    -13.64718713	     -3.09743230	     13.63905399	      1.28787681	      0.96003173	      0.00029913	     26.17054829	      0.49091580	     -0.20710929	     28.61707648	      0.49946221	     13.39770432	    -13.82241853	     -7.49999987	      7.64793915	     -8.58616376	     -7.78107318	     16.66193416	      0.29080561	      9.78334392	     -3.82201322	     -7.49999987	     -4.29264471	      3.59364677	     -5.40881026	   -159.68354274	   -161.73161894	   -150.25281658	     40.53341387	     88.97342275	    362.80345441	    -12.86175712	    344.90639456	     64.55341756	     89.14539409
      3.23333330	    -13.54922786	     -3.32751863	     13.62667403	      1.29071842	      0.95984675	      0.00284341	     25.13737983	      1.13182751	      0.05078915	     27.20077563	      0.47474309	     12.65965174	    -13.47727679	     -7.49999987	      7.46211747	     -9.06666212	     -7.80609816	     16.71920954	      0.29180525	      9.76597624	     -2.82950650	     -7.49999987	     -4.07268013	      3.61665267	     -5.33255407	   -157.66129080	   -163.25882711	   -147.13110712	     40.72306815	     89.70389434	    363.10032421	    -11.90541865	    346.09798603	     66.07071265	     89.62760071
      3.25000000	    -13.26097734	     -3.41330361	     13.62270024	      1.29097516	      0.96601973	      0.00170893	     23.89435507	      1.46639596	      0.32504556	     25.43527458	      0.44392929	     11.15272950	    -13.32171022	     -7.49999987	      7.18018926	     -9.27079268	     -7.86064188	     16.56557414	      0.28912381	      8.96621800	     -2.40128207	     -7.49999987	     -4.11675964	      3.74913417	     -4.98117035	   -155.89439668	   -164.86580075	   -145.89794845	     41.19560547	     89.99702168	    363.64863317	    -10.81209674	    347.75285270	     67.39181856	     89.94056699
      3.26666670	    -13.16220623	     -3.33819429	     13.62650144	      1.29812049	      0.96657434	      0.00188628	     22.55736677	      1.55771023	      0.48081771	     23.39504597	      0.40832058	      9.42345477	    -13.15183700	     -7.49999987	      7.27119755	     -9.26209094	     -8.30303424	     16.94325739	      0.29571563	      7.61699980	     -2.40038755	     -7.49999987	     -3.99551073	      3.64419494	     -4.86255747	   -154.70783922	   -166.11317448	   -143.51924943	     43.20900309	     90.54396022	    362.91466706	    -10.50235042	    349.84274536	     68.66215840	     90.31346110
      3.28333330	    -13.19235739	     -2.92908805	     13.71179227	      1.29835199	      0.97424452	      0.00184212	     21.50263653	      1.17355941	      0.53384430	     21.62570052	      0.37743968	      7.83640599	    -12.83501666	     -7.49999987	      8.47648691	     -8.79622618	     -8.28262641	     18.63096666	      0.32517171	      5.84464332	     -2.96705418	     -7.49999987	     -3.95418406	      3.06580439	     -4.71908273	   -153.61503383	   -167.43974433	   -142.26555200	     44.70037991	     90.77309380	    362.38767807	    -10.19537716	    351.51965367	     68.81192561	     90.47755684
